<mxfile host="drawio-plugin" agent="Mozilla/5.0 (Windows NT 10.0; Win64; x64) AppleWebKit/537.36 (KHTML, like Gecko) Chrome/122.0.0.0 Safari/537.36" modified="2024-12-17T23:21:24.139Z" version="22.1.22" etag="Waxt8lJ2_UG3fgfBVWor" type="embed">
  <diagram name="Page-1" id="B2crgrBseI-Gc1Ru_Sg7">
    <mxGraphModel dx="3434" dy="2364" grid="1" gridSize="10" guides="1" tooltips="1" connect="1" arrows="1" fold="1" page="1" pageScale="1" pageWidth="850" pageHeight="1100" math="0" shadow="0">
      <root>
        <mxCell id="0" />
        <mxCell id="1" parent="0" />
        <mxCell id="UPU-pI2sKJcNqRjN8p3--87" value="&lt;p style=&quot;margin: 6px 0px 0px; text-align: center; font-size: 25px;&quot;&gt;&lt;b style=&quot;font-size: 25px;&quot;&gt;Daemon&lt;/b&gt;&lt;/p&gt;&lt;hr style=&quot;border-style: solid; font-size: 25px;&quot;&gt;&lt;p style=&quot;margin: 0px 0px 0px 8px; font-size: 25px;&quot;&gt;&lt;br style=&quot;font-size: 25px;&quot;&gt;&lt;/p&gt;" style="align=left;overflow=fill;html=1;dropTarget=0;whiteSpace=wrap;fillColor=none;fontSize=25;fontColor=#FFFFFF;rounded=1;strokeColor=#FFFFFF;" parent="1" vertex="1">
          <mxGeometry x="320" y="157" width="419" height="450" as="geometry" />
        </mxCell>
        <mxCell id="UPU-pI2sKJcNqRjN8p3--88" value="" style="shape=component;jettyWidth=8;jettyHeight=4;fontColor=#FFFFFF;strokeColor=#FFFFFF;" parent="UPU-pI2sKJcNqRjN8p3--87" vertex="1">
          <mxGeometry x="1" width="20" height="20" relative="1" as="geometry">
            <mxPoint x="-50" y="14" as="offset" />
          </mxGeometry>
        </mxCell>
        <mxCell id="UPU-pI2sKJcNqRjN8p3--10" value="" style="rounded=0;orthogonalLoop=1;jettySize=auto;html=1;endArrow=halfCircle;endFill=0;endSize=6;strokeWidth=1;sketch=0;exitX=0;exitY=0.5;exitDx=0;exitDy=0;fontColor=#FFFFFF;strokeColor=#FFFFFF;" parent="1" source="UPU-pI2sKJcNqRjN8p3--58" edge="1">
          <mxGeometry relative="1" as="geometry">
            <mxPoint x="330" y="290" as="sourcePoint" />
            <mxPoint x="260" y="275" as="targetPoint" />
          </mxGeometry>
        </mxCell>
        <mxCell id="UPU-pI2sKJcNqRjN8p3--11" value="" style="rounded=0;orthogonalLoop=1;jettySize=auto;html=1;endArrow=oval;endFill=0;sketch=0;sourcePerimeterSpacing=0;targetPerimeterSpacing=0;endSize=10;exitX=1;exitY=0.5;exitDx=0;exitDy=0;fontColor=#FFFFFF;strokeColor=#FFFFFF;" parent="1" source="UPU-pI2sKJcNqRjN8p3--60" edge="1">
          <mxGeometry relative="1" as="geometry">
            <mxPoint x="110" y="320" as="sourcePoint" />
            <mxPoint x="260" y="275" as="targetPoint" />
          </mxGeometry>
        </mxCell>
        <mxCell id="UPU-pI2sKJcNqRjN8p3--15" value="" style="rounded=0;orthogonalLoop=1;jettySize=auto;html=1;endArrow=halfCircle;endFill=0;endSize=6;strokeWidth=1;sketch=0;exitX=1;exitY=0.5;exitDx=0;exitDy=0;fontColor=#FFFFFF;strokeColor=#FFFFFF;" parent="1" source="UPU-pI2sKJcNqRjN8p3--52" edge="1">
          <mxGeometry relative="1" as="geometry">
            <mxPoint x="441" y="750" as="sourcePoint" />
            <mxPoint x="260" y="535" as="targetPoint" />
          </mxGeometry>
        </mxCell>
        <mxCell id="UPU-pI2sKJcNqRjN8p3--16" value="" style="rounded=0;orthogonalLoop=1;jettySize=auto;html=1;endArrow=oval;endFill=0;sketch=0;sourcePerimeterSpacing=0;targetPerimeterSpacing=0;endSize=10;exitX=0;exitY=0.5;exitDx=0;exitDy=0;fontColor=#FFFFFF;strokeColor=#FFFFFF;" parent="1" source="UPU-pI2sKJcNqRjN8p3--64" edge="1">
          <mxGeometry relative="1" as="geometry">
            <mxPoint x="159.5" y="680" as="sourcePoint" />
            <mxPoint x="260" y="535" as="targetPoint" />
          </mxGeometry>
        </mxCell>
        <mxCell id="UPU-pI2sKJcNqRjN8p3--25" value="JDBC" style="text;html=1;align=center;verticalAlign=middle;resizable=0;points=[];autosize=1;strokeColor=#FFFFFF;fillColor=none;fontStyle=1;fontSize=22;fontColor=#FFFFFF;strokeWidth=0;shadow=0;" parent="1" vertex="1">
          <mxGeometry x="221" y="495" width="80" height="40" as="geometry" />
        </mxCell>
        <mxCell id="UPU-pI2sKJcNqRjN8p3--26" value="&lt;b style=&quot;font-size: 22px;&quot;&gt;REST-API&lt;/b&gt;" style="text;html=1;align=center;verticalAlign=middle;resizable=0;points=[];autosize=1;strokeColor=#FFFFFF;fillColor=none;fontSize=22;strokeWidth=0;fontColor=#FFFFFF;" parent="1" vertex="1">
          <mxGeometry x="201" y="235" width="120" height="40" as="geometry" />
        </mxCell>
        <mxCell id="UPU-pI2sKJcNqRjN8p3--52" value="&lt;b style=&quot;font-size: 25px;&quot;&gt;Embedded Database&lt;/b&gt;" style="html=1;dropTarget=0;whiteSpace=wrap;strokeColor=#FFFFFF;align=center;verticalAlign=middle;fontFamily=Helvetica;fontSize=25;fontColor=#FFFFFF;fillColor=none;rounded=1;" parent="1" vertex="1">
          <mxGeometry x="20" y="490" width="180" height="90" as="geometry" />
        </mxCell>
        <mxCell id="UPU-pI2sKJcNqRjN8p3--53" value="" style="shape=module;jettyWidth=8;jettyHeight=4;strokeColor=#FFFFFF;align=center;verticalAlign=middle;fontFamily=Helvetica;fontSize=12;fontColor=#FFFFFF;fillColor=default;" parent="UPU-pI2sKJcNqRjN8p3--52" vertex="1">
          <mxGeometry x="1" width="20" height="20" relative="1" as="geometry">
            <mxPoint x="-27" y="7" as="offset" />
          </mxGeometry>
        </mxCell>
        <mxCell id="UPU-pI2sKJcNqRjN8p3--68" style="edgeStyle=orthogonalEdgeStyle;rounded=0;orthogonalLoop=1;jettySize=auto;html=1;entryX=1;entryY=0.5;entryDx=0;entryDy=0;verticalAlign=middle;fontColor=#FFFFFF;strokeColor=#FFFFFF;" parent="1" source="UPU-pI2sKJcNqRjN8p3--56" target="UPU-pI2sKJcNqRjN8p3--62" edge="1">
          <mxGeometry relative="1" as="geometry" />
        </mxCell>
        <mxCell id="UPU-pI2sKJcNqRjN8p3--56" value="&lt;b style=&quot;font-size: 25px;&quot;&gt;Monitoring Scheduler&lt;/b&gt;" style="html=1;dropTarget=0;whiteSpace=wrap;strokeColor=#FFFFFF;align=center;verticalAlign=middle;fontFamily=Helvetica;fontSize=25;fontColor=#FFFFFF;fillColor=none;rounded=1;" parent="1" vertex="1">
          <mxGeometry x="545" y="359" width="180" height="90" as="geometry" />
        </mxCell>
        <mxCell id="UPU-pI2sKJcNqRjN8p3--57" value="" style="shape=module;jettyWidth=8;jettyHeight=4;strokeColor=#FFFFFF;align=center;verticalAlign=middle;fontFamily=Helvetica;fontSize=12;fontColor=#FFFFFF;fillColor=default;" parent="UPU-pI2sKJcNqRjN8p3--56" vertex="1">
          <mxGeometry x="1" width="20" height="20" relative="1" as="geometry">
            <mxPoint x="-27" y="7" as="offset" />
          </mxGeometry>
        </mxCell>
        <mxCell id="UPU-pI2sKJcNqRjN8p3--66" style="edgeStyle=orthogonalEdgeStyle;rounded=0;orthogonalLoop=1;jettySize=auto;html=1;exitX=0.5;exitY=1;exitDx=0;exitDy=0;entryX=0.5;entryY=0;entryDx=0;entryDy=0;fontColor=#FFFFFF;strokeColor=#FFFFFF;" parent="1" source="UPU-pI2sKJcNqRjN8p3--58" target="UPU-pI2sKJcNqRjN8p3--62" edge="1">
          <mxGeometry relative="1" as="geometry" />
        </mxCell>
        <mxCell id="UPU-pI2sKJcNqRjN8p3--58" value="&lt;b style=&quot;font-size: 25px;&quot;&gt;Rest Controller&lt;/b&gt;" style="html=1;dropTarget=0;whiteSpace=wrap;strokeColor=#FFFFFF;align=center;verticalAlign=middle;fontFamily=Helvetica;fontSize=25;fontColor=#FFFFFF;fillColor=none;rounded=1;" parent="1" vertex="1">
          <mxGeometry x="335" y="229" width="180" height="90" as="geometry" />
        </mxCell>
        <mxCell id="UPU-pI2sKJcNqRjN8p3--59" value="" style="shape=module;jettyWidth=8;jettyHeight=4;strokeColor=#FFFFFF;align=center;verticalAlign=middle;fontFamily=Helvetica;fontSize=12;fontColor=#FFFFFF;fillColor=default;" parent="UPU-pI2sKJcNqRjN8p3--58" vertex="1">
          <mxGeometry x="1" width="20" height="20" relative="1" as="geometry">
            <mxPoint x="-27" y="7" as="offset" />
          </mxGeometry>
        </mxCell>
        <mxCell id="UFvi_qtKtxuHVK_6_A9U-1" value="&lt;p style=&quot;margin: 6px 0px 0px; text-align: center; font-size: 25px;&quot;&gt;&lt;b style=&quot;font-size: 25px;&quot;&gt;CLI&lt;/b&gt;&lt;/p&gt;&lt;hr style=&quot;border-style: solid; font-size: 25px;&quot;&gt;&lt;p style=&quot;margin: 0px 0px 0px 8px; font-size: 25px;&quot;&gt;&lt;br style=&quot;font-size: 25px;&quot;&gt;&lt;/p&gt;" style="align=left;overflow=fill;html=1;dropTarget=0;whiteSpace=wrap;fillColor=none;fontSize=25;fontColor=#FFFFFF;rounded=1;shadow=0;strokeColor=#FFFFFF;" parent="1" vertex="1">
          <mxGeometry x="-220" y="170" width="421" height="170" as="geometry" />
        </mxCell>
        <mxCell id="UFvi_qtKtxuHVK_6_A9U-2" value="" style="shape=component;jettyWidth=8;jettyHeight=4;fontColor=#FFFFFF;strokeColor=#FFFFFF;" parent="UFvi_qtKtxuHVK_6_A9U-1" vertex="1">
          <mxGeometry x="1" width="20" height="20" relative="1" as="geometry">
            <mxPoint x="-32" y="10" as="offset" />
          </mxGeometry>
        </mxCell>
        <mxCell id="UPU-pI2sKJcNqRjN8p3--60" value="&lt;b style=&quot;font-size: 25px;&quot;&gt;Rest Adapter&lt;/b&gt;" style="html=1;dropTarget=0;whiteSpace=wrap;strokeColor=#FFFFFF;align=center;verticalAlign=middle;fontFamily=Helvetica;fontSize=25;fontColor=#FFFFFF;fillColor=none;rounded=1;" parent="1" vertex="1">
          <mxGeometry x="8" y="230" width="180" height="90" as="geometry" />
        </mxCell>
        <mxCell id="UPU-pI2sKJcNqRjN8p3--61" value="" style="shape=module;jettyWidth=8;jettyHeight=4;strokeColor=#FFFFFF;align=center;verticalAlign=middle;fontFamily=Helvetica;fontSize=12;fontColor=#FFFFFF;fillColor=default;" parent="UPU-pI2sKJcNqRjN8p3--60" vertex="1">
          <mxGeometry x="1" width="20" height="20" relative="1" as="geometry">
            <mxPoint x="-27" y="7" as="offset" />
          </mxGeometry>
        </mxCell>
        <mxCell id="UPU-pI2sKJcNqRjN8p3--67" style="edgeStyle=orthogonalEdgeStyle;rounded=0;orthogonalLoop=1;jettySize=auto;html=1;exitX=0.5;exitY=1;exitDx=0;exitDy=0;entryX=0.5;entryY=0;entryDx=0;entryDy=0;fontColor=#FFFFFF;strokeColor=#FFFFFF;" parent="1" source="UPU-pI2sKJcNqRjN8p3--62" target="UPU-pI2sKJcNqRjN8p3--64" edge="1">
          <mxGeometry relative="1" as="geometry" />
        </mxCell>
        <mxCell id="UPU-pI2sKJcNqRjN8p3--62" value="&lt;b style=&quot;font-size: 25px;&quot;&gt;Domain Service&lt;/b&gt;" style="html=1;dropTarget=0;whiteSpace=wrap;strokeColor=#FFFFFF;align=center;verticalAlign=middle;fontFamily=Helvetica;fontSize=25;fontColor=#FFFFFF;fillColor=none;rounded=1;" parent="1" vertex="1">
          <mxGeometry x="335" y="359" width="180" height="90" as="geometry" />
        </mxCell>
        <mxCell id="UPU-pI2sKJcNqRjN8p3--63" value="" style="shape=module;jettyWidth=8;jettyHeight=4;strokeColor=#FFFFFF;align=center;verticalAlign=middle;fontFamily=Helvetica;fontSize=12;fontColor=#FFFFFF;fillColor=default;" parent="UPU-pI2sKJcNqRjN8p3--62" vertex="1">
          <mxGeometry x="1" width="20" height="20" relative="1" as="geometry">
            <mxPoint x="-27" y="7" as="offset" />
          </mxGeometry>
        </mxCell>
        <mxCell id="UPU-pI2sKJcNqRjN8p3--64" value="&lt;b style=&quot;font-size: 25px;&quot;&gt;Repository&lt;/b&gt;" style="html=1;dropTarget=0;whiteSpace=wrap;strokeColor=#FFFFFF;align=center;verticalAlign=middle;fontFamily=Helvetica;fontSize=25;fontColor=#FFFFFF;fillColor=none;rounded=1;" parent="1" vertex="1">
          <mxGeometry x="335" y="489" width="180" height="90" as="geometry" />
        </mxCell>
        <mxCell id="UPU-pI2sKJcNqRjN8p3--65" value="" style="shape=module;jettyWidth=8;jettyHeight=4;strokeColor=#FFFFFF;align=center;verticalAlign=middle;fontFamily=Helvetica;fontSize=12;fontColor=#FFFFFF;fillColor=default;" parent="UPU-pI2sKJcNqRjN8p3--64" vertex="1">
          <mxGeometry x="1" width="20" height="20" relative="1" as="geometry">
            <mxPoint x="-27" y="7" as="offset" />
          </mxGeometry>
        </mxCell>
        <mxCell id="UFvi_qtKtxuHVK_6_A9U-5" style="edgeStyle=orthogonalEdgeStyle;rounded=0;orthogonalLoop=1;jettySize=auto;html=1;entryX=0;entryY=0.5;entryDx=0;entryDy=0;fontColor=#FFFFFF;strokeColor=#FFFFFF;" parent="1" source="UFvi_qtKtxuHVK_6_A9U-3" target="UPU-pI2sKJcNqRjN8p3--60" edge="1">
          <mxGeometry relative="1" as="geometry" />
        </mxCell>
        <mxCell id="UFvi_qtKtxuHVK_6_A9U-3" value="&lt;b style=&quot;font-size: 25px;&quot;&gt;Shell&lt;/b&gt;" style="html=1;dropTarget=0;whiteSpace=wrap;strokeColor=#FFFFFF;align=center;verticalAlign=middle;fontFamily=Helvetica;fontSize=25;fontColor=#FFFFFF;fillColor=none;rounded=1;" parent="1" vertex="1">
          <mxGeometry x="-206" y="230" width="180" height="90" as="geometry" />
        </mxCell>
        <mxCell id="UFvi_qtKtxuHVK_6_A9U-4" value="" style="shape=module;jettyWidth=8;jettyHeight=4;strokeColor=#FFFFFF;align=center;verticalAlign=middle;fontFamily=Helvetica;fontSize=12;fontColor=#FFFFFF;fillColor=default;" parent="UFvi_qtKtxuHVK_6_A9U-3" vertex="1">
          <mxGeometry x="1" width="20" height="20" relative="1" as="geometry">
            <mxPoint x="-27" y="7" as="offset" />
          </mxGeometry>
        </mxCell>
        <mxCell id="3gqx_RE6KI6V0f84vkD5-1" style="edgeStyle=orthogonalEdgeStyle;rounded=0;orthogonalLoop=1;jettySize=auto;html=1;entryX=0;entryY=0.5;entryDx=0;entryDy=0;fontColor=#FFFFFF;strokeColor=#FFFFFF;" parent="1" edge="1">
          <mxGeometry relative="1" as="geometry">
            <mxPoint x="-17" y="379" as="sourcePoint" />
            <mxPoint x="17" y="379" as="targetPoint" />
          </mxGeometry>
        </mxCell>
      </root>
    </mxGraphModel>
  </diagram>
</mxfile>
